@startuml
title Core Business-Agnostic Core

skinparam shadowing false
skinparam NoteBackgroundColor White

skinparam class {
	BackgroundColor White
	ArrowColor SeaGreen
  NoteBackgroundColor White
}

skinparam object {
	BackgroundColor White
	ArrowColor SeaGreen
  NoteBackgroundColor White
}

left to right direction

' --- BEGIN Requests payloads ---

interface Request {
  nonce: Long
}

interface Response {
  nonce: Long
}

class Authorised<Payload> {
}


AtomicRequest *--> "*" Request: has 2 or more
AtomicResponse *--> "*" Response: has 2 or more


interface Ledger {
  invoke(request: Authorised<Request>) : Response
}

Ledger ..> Request: consumes
Ledger ..> Response: responds with
Ledger ..> Authorised: authorised by
AtomicRequest --|> Request: is a
AtomicResponse --|> Response: is a


' --- BEGIN Authentication ---

class AuthenticatedUser {
  token: String
}

class User {
  userId: String
}

interface AuthService {
  authenticate(credentials): AuthenticatedUser
}

AuthService ..> AuthenticatedUser : generates

User "*" <..> "*" Business
User "*" <..> "*" Role
Role "*" <..> "*" Permission
Authorised *--> "1" Request: payload
Authorised *--> "1" AuthenticatedUser
AuthenticatedUser *--> User

CreateUserRequest --|> Request
CreateRoleRequest --|> Request
CreateBusinessRequest --|> Request

CreateUserResponse --|> Response
CreateRoleResponse --|> Response
CreateBusinessResponse --|> Response

CreateUserRequest <..> CreateUserResponse
CreateRoleRequest <..> CreateRoleResponse
CreateBusinessRequest <..> CreateBusinessResponse
@enduml